<svg id="Layer_1" data-name="Layer 1" xmlns="http://www.w3.org/2000/svg" xmlns:xlink="http://www.w3.org/1999/xlink" viewBox="0 0 422.64 422"><defs><style>.cls-1{opacity:0.78;fill:url(#linear-gradient);}.cls-13,.cls-2{stroke:#231f20;stroke-miterlimit:10;}.cls-2{fill:url(#linear-gradient-2);}.cls-3{fill:url(#linear-gradient-3);}.cls-4{fill:url(#linear-gradient-4);}.cls-5{fill:url(#linear-gradient-5);}.cls-6{fill:url(#linear-gradient-6);}.cls-7{fill:url(#linear-gradient-7);}.cls-8{fill:url(#linear-gradient-8);}.cls-9{fill:url(#linear-gradient-9);}.cls-10{fill:url(#linear-gradient-10);}.cls-11{fill:url(#linear-gradient-11);}.cls-12{fill:url(#linear-gradient-12);}.cls-13{fill:url(#linear-gradient-13);}.cls-14{fill:url(#linear-gradient-14);}.cls-15{fill:url(#linear-gradient-15);}.cls-16{fill:url(#linear-gradient-16);}.cls-17{fill:url(#linear-gradient-17);}.cls-18{fill:url(#linear-gradient-18);}.cls-19{fill:url(#linear-gradient-19);}.cls-20{fill:url(#linear-gradient-20);}.cls-21{fill:#47260e;}.cls-22{fill:url(#linear-gradient-21);}.cls-23{fill:url(#linear-gradient-22);}.cls-24{fill:url(#linear-gradient-23);}.cls-25{fill:url(#linear-gradient-24);}.cls-26{fill:#886646;}.cls-27{fill:#bb7054;}.cls-28{fill:#231f20;}.cls-29,.cls-30{fill:#7fc0e9;}.cls-30{opacity:0.94;}.cls-31{fill:url(#linear-gradient-25);}.cls-32{fill:url(#linear-gradient-26);}.cls-33{fill:#fee575;}.cls-34{fill:#b6d661;}.cls-35{fill:url(#linear-gradient-27);}.cls-36{fill:url(#linear-gradient-28);}.cls-37{fill:url(#linear-gradient-29);}.cls-38{fill:url(#linear-gradient-30);}</style><linearGradient id="linear-gradient" x1="19.92" y1="404.21" x2="441.92" y2="404.21" gradientTransform="translate(660.28 161.38) rotate(90)" gradientUnits="userSpaceOnUse"><stop offset="0.53" stop-color="#63bd5b" stop-opacity="0.55"/><stop offset="0.68" stop-color="#6ebe93" stop-opacity="0.73"/><stop offset="0.85" stop-color="#79bfd0" stop-opacity="0.92"/><stop offset="0.93" stop-color="#7ec0e9"/></linearGradient><linearGradient id="linear-gradient-2" x1="90.34" y1="398.57" x2="90.34" y2="398.57" gradientUnits="userSpaceOnUse"><stop offset="0.28" stop-color="#fff"/><stop offset="0.37" stop-color="#edf6fc"/><stop offset="0.8" stop-color="#9ecfee"/><stop offset="0.99" stop-color="#7ec0e9"/></linearGradient><linearGradient id="linear-gradient-3" x1="211.57" y1="197.88" x2="211.57" y2="338.81" xlink:href="#linear-gradient-2"/><linearGradient id="linear-gradient-4" x1="207.99" y1="319.99" x2="207.99" y2="339.74" gradientUnits="userSpaceOnUse"><stop offset="0.37" stop-color="#502910"/><stop offset="0.48" stop-color="#673614"/></linearGradient><linearGradient id="linear-gradient-5" x1="207.99" y1="300.25" x2="207.99" y2="319.99" xlink:href="#linear-gradient-4"/><linearGradient id="linear-gradient-6" x1="207.99" y1="280.5" x2="207.99" y2="300.25" xlink:href="#linear-gradient-4"/><linearGradient id="linear-gradient-7" x1="207.99" y1="263.86" x2="207.99" y2="283.6" xlink:href="#linear-gradient-4"/><linearGradient id="linear-gradient-8" x1="207.99" y1="244.11" x2="207.99" y2="263.86" xlink:href="#linear-gradient-4"/><linearGradient id="linear-gradient-9" x1="207.99" y1="224.54" x2="207.99" y2="244.29" xlink:href="#linear-gradient-4"/><linearGradient id="linear-gradient-10" x1="207.99" y1="203.2" x2="207.99" y2="225.32" xlink:href="#linear-gradient-4"/><linearGradient id="linear-gradient-11" x1="75.02" y1="315.51" x2="75.02" y2="315.51" gradientUnits="userSpaceOnUse"><stop offset="0.28" stop-color="#6cbe45"/><stop offset="0.61" stop-color="#6cbe45"/><stop offset="0.67" stop-color="#6cbe45"/></linearGradient><linearGradient id="linear-gradient-12" x1="178.53" y1="106.77" x2="178.53" y2="146.33" gradientUnits="userSpaceOnUse"><stop offset="1" stop-color="#673716" stop-opacity="0.87"/><stop offset="1" stop-color="#673614"/></linearGradient><linearGradient id="linear-gradient-13" x1="240.93" y1="364.95" x2="240.93" y2="364.95" gradientUnits="userSpaceOnUse"><stop offset="0.24" stop-color="#7ebfe5" stop-opacity="0.15"/><stop offset="0.39" stop-color="#7ebfe7" stop-opacity="0.52"/><stop offset="0.54" stop-color="#7ec0e8" stop-opacity="0.86"/><stop offset="0.6" stop-color="#7ec0e9"/></linearGradient><linearGradient id="linear-gradient-14" x1="207.99" y1="182.86" x2="207.99" y2="204.98" xlink:href="#linear-gradient-4"/><linearGradient id="linear-gradient-15" x1="215.88" y1="58.14" x2="215.88" y2="106.82" gradientUnits="userSpaceOnUse"><stop offset="0.73" stop-color="#673716" stop-opacity="0.87"/><stop offset="0.91" stop-color="#673716" stop-opacity="0.89"/><stop offset="0.98" stop-color="#673615" stop-opacity="0.95"/><stop offset="1" stop-color="#673614"/></linearGradient><linearGradient id="linear-gradient-16" x1="193.53" y1="106.77" x2="193.53" y2="146.33" xlink:href="#linear-gradient-12"/><linearGradient id="linear-gradient-17" x1="208.53" y1="106.77" x2="208.53" y2="146.33" xlink:href="#linear-gradient-12"/><linearGradient id="linear-gradient-18" x1="223.53" y1="106.77" x2="223.53" y2="146.33" xlink:href="#linear-gradient-12"/><linearGradient id="linear-gradient-19" x1="238.53" y1="106.77" x2="238.53" y2="146.33" xlink:href="#linear-gradient-12"/><linearGradient id="linear-gradient-20" x1="253.53" y1="106.77" x2="253.53" y2="146.33" xlink:href="#linear-gradient-12"/><linearGradient id="linear-gradient-21" x1="204.08" y1="301.67" x2="204.08" y2="311.67" gradientTransform="translate(102.7 -48.01) scale(0.65 1)" xlink:href="#linear-gradient-15"/><linearGradient id="linear-gradient-22" x1="287.79" y1="405.24" x2="287.79" y2="415.24" gradientTransform="translate(63.7 -155.35) scale(0.76 1)" xlink:href="#linear-gradient-15"/><linearGradient id="linear-gradient-23" x1="207.99" y1="338.16" x2="207.99" y2="360.29" xlink:href="#linear-gradient-4"/><linearGradient id="linear-gradient-24" x1="333.4" y1="213.72" x2="333.4" y2="213.72" xlink:href="#linear-gradient-15"/><linearGradient id="linear-gradient-25" x1="207.99" y1="355.35" x2="207.99" y2="377.48" xlink:href="#linear-gradient-4"/><linearGradient id="linear-gradient-26" x1="207.99" y1="377.48" x2="207.99" y2="399.61" xlink:href="#linear-gradient-4"/><linearGradient id="linear-gradient-27" x1="207.99" y1="161.73" x2="207.99" y2="183.86" xlink:href="#linear-gradient-4"/><linearGradient id="linear-gradient-28" x1="207.99" y1="399.84" x2="207.99" y2="421.96" xlink:href="#linear-gradient-4"/><linearGradient id="linear-gradient-29" x1="23.66" y1="155.52" x2="23.66" y2="425.82" xlink:href="#linear-gradient-11"/><linearGradient id="linear-gradient-30" x1="439.75" y1="340.3" x2="439.75" y2="585.53" gradientTransform="matrix(1, 0.01, -0.01, 1.09, -42.32, -215.3)" gradientUnits="userSpaceOnUse"><stop offset="0.11" stop-color="#6cbe46"/><stop offset="0.7" stop-color="#6bbd45"/></linearGradient></defs><title>Background</title><path class="cls-1" d="M45.06,601V179h422V601Z" transform="translate(-45.06 -179)"/><path class="cls-2" d="M90.34,398.57" transform="translate(-45.06 -179)"/><polygon class="cls-3" points="294.13 338.04 129.02 338.04 129.02 197.11 294.13 197.11 294.13 241.03 294.13 338.04"/><rect class="cls-4" x="47.32" y="319.88" width="321.33" height="19.74"/><rect class="cls-5" x="47.32" y="300.14" width="321.33" height="19.74"/><rect class="cls-6" x="47.32" y="280.39" width="321.33" height="19.74"/><rect class="cls-7" x="47.32" y="263.75" width="321.33" height="19.74"/><rect class="cls-8" x="47.32" y="244.01" width="321.33" height="19.74"/><rect class="cls-9" x="47.32" y="224.43" width="321.33" height="19.74"/><rect class="cls-10" x="47.32" y="203.08" width="321.33" height="22.13"/><path class="cls-11" d="M75,315.51" transform="translate(-45.06 -179)"/><rect class="cls-12" x="171.03" y="106.55" width="15" height="39.56"/><path class="cls-13" d="M240.93,365" transform="translate(-45.06 -179)"/><rect class="cls-14" x="47.32" y="182.73" width="321.33" height="22.13"/><polygon class="cls-15" points="215.88 57.87 171.03 106.55 260.73 106.55 215.88 57.87"/><rect class="cls-16" x="186.03" y="106.55" width="15" height="39.56"/><rect class="cls-17" x="201.03" y="106.55" width="15" height="39.56"/><rect class="cls-18" x="216.03" y="106.55" width="15" height="39.56"/><rect class="cls-19" x="231.03" y="106.55" width="15" height="39.56"/><rect class="cls-20" x="246.03" y="106.55" width="15" height="39.56"/><rect class="cls-21" x="197.96" y="121.13" width="36.14" height="24.98"/><rect class="cls-22" x="200.56" y="253.6" width="67.79" height="10" transform="translate(-159.66 76.82) rotate(-47.35)"/><rect class="cls-23" x="243.48" y="249.83" width="80.23" height="10" transform="translate(233.8 -305.41) rotate(47.35)"/><circle class="cls-21" cx="216.03" cy="85.28" r="10"/><rect class="cls-21" x="280.97" y="106.95" width="3.74" height="40"/><rect class="cls-21" x="290.38" y="110.75" width="3.75" height="37"/><rect class="cls-21" x="301.87" y="110.25" width="3.75" height="38"/><rect class="cls-21" x="312.83" y="119.12" width="3.75" height="29"/><rect class="cls-21" x="324.64" y="122.75" width="3.75" height="25"/><rect class="cls-21" x="392.78" y="110.25" width="3.74" height="38"/><rect class="cls-21" x="364.91" y="110.25" width="3.75" height="38"/><rect class="cls-21" x="351.22" y="123.25" width="3.75" height="25"/><rect class="cls-21" x="271.37" y="117.32" width="3.75" height="29"/><rect class="cls-21" x="261.03" y="126.95" width="161.6" height="4.87"/><rect class="cls-24" x="47.32" y="338.04" width="321.33" height="22.13"/><path class="cls-25" d="M333.4,213.72" transform="translate(-45.06 -179)"/><rect class="cls-26" x="47.15" y="60.8" width="96.68" height="59.57"/><rect class="cls-26" x="75.77" y="120.37" width="7" height="24.51"/><rect class="cls-26" x="106.4" y="120.37" width="7" height="24.51"/><rect class="cls-27" x="55.83" y="70.32" width="79.32" height="40.53"/><path class="cls-28" d="M111.15,264.9h2.32l1.46,4c.18.53.33,1.11.51,1.67h.06c.18-.56.33-1.14.51-1.67l1.41-4h2.33V274h-2v-3.2c0-.9.17-2.25.27-3.14H118l-.75,2.17L116,273.25h-1.18l-1.25-3.39-.73-2.17h-.06a30,30,0,0,1,.28,3.14V274h-1.92Z" transform="translate(-45.06 -179)"/><path class="cls-28" d="M123.61,264.9h2.57L129,274h-2.27l-1.16-4.58c-.25-.9-.49-2-.73-2.93h-.05c-.22,1-.46,2-.7,2.93L123,274h-2.19Zm-.93,5.34h4.4v1.67h-4.4Z" transform="translate(-45.06 -179)"/><path class="cls-28" d="M131.55,269.33l-2.36-4.43h2.39l.75,1.67c.21.42.4.9.66,1.48h.06c.21-.58.4-1.06.58-1.48l.68-1.67h2.29l-2.37,4.53,2.51,4.6h-2.39l-.86-1.81c-.22-.47-.43-.94-.67-1.51h-.06c-.21.57-.41,1-.62,1.51l-.81,1.81H129Z" transform="translate(-45.06 -179)"/><path class="cls-28" d="M140.9,264.9h3.18c2,0,3.64.72,3.64,3s-1.66,3.12-3.59,3.12H143v3H140.9Zm3.11,4.38c1.1,0,1.61-.5,1.61-1.42S145,266.6,144,266.6H143v2.68Z" transform="translate(-45.06 -179)"/><path class="cls-28" d="M149.35,264.9h2.15v3.49h3.05V264.9h2.14V274h-2.14v-3.77H151.5V274h-2.15Z" transform="translate(-45.06 -179)"/><path class="cls-28" d="M158.87,264.9H161V274h-2.15Z" transform="translate(-45.06 -179)"/><path class="cls-28" d="M163.21,264.9h2.15v7.33h3.56V274h-5.71Z" transform="translate(-45.06 -179)"/><path class="cls-28" d="M170.58,264.9h2.14v7.33h3.57V274h-5.71Z" transform="translate(-45.06 -179)"/><rect class="cls-29" x="0.54" y="38.47" width="206.56" height="11.25"/><rect class="cls-30" x="223.53" y="38.47" width="198.47" height="14.2"/><polyline class="cls-29" points="223.53 52.67 215.21 42.79 211.57 38.47 223.53 38.47"/><polyline class="cls-29" points="207.1 49.72 206.81 38.47 211.29 38.47 215.21 42.79"/><rect class="cls-31" x="47.32" y="355.23" width="321.33" height="22.13"/><rect class="cls-32" x="47.32" y="377.36" width="321.33" height="22.13"/><rect class="cls-21" x="378.6" y="118.13" width="3.75" height="29"/><rect class="cls-21" x="403.8" y="119.12" width="3.75" height="29"/><rect class="cls-21" x="336.13" y="118.78" width="3.75" height="29"/><rect class="cls-33" x="0.47" width="422.17" height="38.47"/><rect class="cls-34" x="3.94" y="5.95" width="65" height="26.04"/><rect class="cls-34" x="73.94" y="5.95" width="65" height="26.04"/><rect class="cls-34" x="143.94" y="6.21" width="65" height="26.04"/><rect class="cls-34" x="213.94" y="6.21" width="65" height="26.04"/><rect class="cls-34" x="283.94" y="5.95" width="65" height="26.04"/><rect class="cls-35" x="47.32" y="161.61" width="321.33" height="22.13"/><rect class="cls-34" x="353.94" y="5.95" width="65" height="26.04"/><rect class="cls-21" x="414.98" y="110.38" width="3.75" height="38"/><rect class="cls-36" x="47.32" y="399.71" width="321.33" height="22.13"/><polygon class="cls-37" points="47.32 161.09 44.04 154.04 40.19 161.09 37.91 154.04 34.49 157.56 32.07 154.04 27.93 157.56 24.66 154.04 21.38 157.56 18.53 154.04 15.39 157.56 11.12 157.56 7.55 157.56 3.85 154.04 0 157.56 0 420.82 13.76 421.84 47.32 421.84 47.32 161.09"/><polygon class="cls-38" points="420.92 421.33 422.37 160.61 418.87 157.15 415.56 160.57 412.51 157.11 407.89 158.81 403.73 157.06 400.64 160.49 396.49 157.03 393.18 160.45 388.37 156.98 385.94 160.41 382.67 156.95 377.82 160.37 374.75 158.63 373.43 160.34 371.25 156.89 368.38 160.31 366.93 421.84 412.22 421.84 420.92 421.33"/></svg>